<?xml version="1.0" encoding="utf-8"?>
<!-- Generator: Adobe Illustrator 23.0.1, SVG Export Plug-In . SVG Version: 6.00 Build 0)  -->
<svg version="1.1" id="Capa_1" xmlns="http://www.w3.org/2000/svg" xmlns:xlink="http://www.w3.org/1999/xlink" x="0px" y="0px"
	 viewBox="0 0 480.6 480.6" style="enable-background:new 0 0 480.6 480.6;" xml:space="preserve">
<style type="text/css">
	.st0{fill:#444444;}
</style>
<g>
	<g>
		<path class="st0" d="M400.4,299.3c-17-16.8-38.2-16.8-55,0c-12.9,12.8-25.7,25.5-38.4,38.5c-3.5,3.6-6.4,4.3-10.6,1.9
			c-8.3-4.5-17.2-8.2-25.2-13.2c-37.3-23.5-68.5-53.6-96.2-87.6c-13.7-16.9-25.9-34.9-34.5-55.2c-1.7-4.1-1.4-6.8,1.9-10.2
			c12.9-12.4,25.4-25.2,38.1-37.9c17.6-17.7,17.6-38.5-0.1-56.3c-10.1-10.2-20.1-20.1-30.2-30.3c-10.4-10.4-20.6-20.9-31.1-31.1
			c-17-16.5-38.2-16.5-55,0.1c-13,12.8-25.4,25.8-38.6,38.4C13.3,67.9,7.1,82.1,5.8,98.6c-2.1,26.9,4.5,52.3,13.8,77.1
			c19,51.2,48,96.8,83.1,138.5c47.5,56.4,104.1,101.1,170.4,133.3c29.8,14.5,60.8,25.6,94.4,27.5c23.1,1.3,43.2-4.5,59.4-22.6
			c11-12.3,23.5-23.6,35.1-35.4c17.3-17.5,17.4-38.7,0.2-56C441.7,340.3,421.1,319.8,400.4,299.3z"/>
	</g>
</g>
</svg>
